<?xml version="1.0" encoding="UTF-8"?>
<!DOCTYPE svg PUBLIC "-//W3C//DTD SVG 1.1//EN" "http://www.w3.org/Graphics/SVG/1.1/DTD/svg11.dtd">
<!-- Creator: CorelDRAW (OEM Version) -->
<svg xmlns="http://www.w3.org/2000/svg" xml:space="preserve" width="1.41202in" height="0.409579in" version="1.1" style="shape-rendering:geometricPrecision; text-rendering:geometricPrecision; image-rendering:optimizeQuality; fill-rule:evenodd; clip-rule:evenodd"
viewBox="0 0 340.77 98.85"
 xmlns:xlink="http://www.w3.org/1999/xlink"
 xmlns:xodm="http://www.corel.com/coreldraw/odm/2003">
 <defs>
  <style type="text/css">
   <![CDATA[
    .fil1 {fill:#C4F500}
    .fil0 {fill:white;fill-rule:nonzero}
   ]]>
  </style>
 </defs>
 <g id="Layer_x0020_1">
  <metadata id="CorelCorpID_0Corel-Layer"/>
  <path class="fil0" d="M160.93 24.33l-32.62 0 0 56.3 32.62 0 0 -9.18 -21.34 0 0 -14.9 18.93 0 0 -8.94 -18.93 0 0 -14.1 21.34 0 0 -9.18zm39.34 43.57c-0.32,-16.35 -25.05,-11.28 -25.05,-19.41 0,-2.58 2.17,-4.27 6.36,-4.27 4.43,0 7.17,2.34 7.49,5.8l10.79 0c-0.64,-8.86 -7.17,-14.74 -17.96,-14.74 -11.03,0 -17.64,5.96 -17.64,13.37 0,16.35 25.21,11.28 25.21,19.25 0,2.58 -2.42,4.59 -6.85,4.59 -4.51,0 -7.65,-2.58 -8.05,-5.96l-11.36 0c0.48,8.3 8.3,14.82 19.49,14.82 10.87,0 17.56,-5.8 17.56,-13.45zm0.84 -9.75c0,13.93 9.02,23.2 20.3,23.2 7.09,0 12.16,-3.38 14.82,-7.25l0 6.52 11.36 0 0 -44.62 -11.36 0 0 6.36c-2.66,-3.71 -7.57,-7.09 -14.74,-7.09 -11.36,0 -20.38,8.94 -20.38,22.87zm35.12 0.16c0,8.46 -5.64,13.13 -11.84,13.13 -6.04,0 -11.76,-4.83 -11.76,-13.29 0,-8.46 5.72,-12.97 11.76,-12.97 6.2,0 11.84,4.67 11.84,13.13zm16.86 22.31l11.28 0 0 -44.62 -11.28 0 0 44.62zm5.72 -49.94c3.95,0 6.93,-2.9 6.93,-6.6 0,-3.7 -2.98,-6.6 -6.93,-6.6 -4.03,0 -6.93,2.9 -6.93,6.6 0,3.71 2.9,6.6 6.93,6.6zm42.4 49.94l11.28 0 0 -26.18c0,-12.32 -7.41,-19.09 -17.8,-19.09 -5.72,0 -10.55,2.42 -13.45,6.2l0 -5.56 -11.28 0 0 44.62 11.28 0 0 -24.65c0,-7.17 3.95,-11.04 10.07,-11.04 5.96,0 9.91,3.87 9.91,11.04l0 24.65zm18.23 -13.85c0,10.23 5.72,13.85 14.26,13.85l7.09 0 0 -9.5 -5.24 0c-3.54,0 -4.75,-1.29 -4.75,-4.27l0 -21.59 9.99 0 0 -9.26 -9.99 0 0 -11.03 -11.36 0 0 11.03 -5.32 0 0 9.26 5.32 0 0 21.51z"/>
  <path class="fil1" d="M25.08 30.81c1.74,-1.15 1.19,-1.2 2.48,-2.6 12.73,-13.78 37.69,-11.93 47.87,5.64l2 3.34c-0.46,0.9 0.03,0.49 -1.22,1.01 -6.27,2.61 -16.27,5.93 -23.06,8.62 -3.88,1.54 -22.55,8.1 -24.45,9.29 5.37,0.41 68.68,0.21 69.62,-0.17 0.85,-5.89 0.41,-15.07 -1.53,-20.29 -0.95,-4.99 -5.26,-12.64 -8.23,-16.38 -1.7,-2.14 -5.2,-5.9 -7.25,-7.57 -6.98,-5.69 -15.77,-10.51 -27.68,-11.51 -17.69,-1.49 -32.54,5.98 -42.78,18.3 -0.52,0.63 -0.69,0.78 -1.18,1.44 -1.6,2.16 -4.66,6.98 -5.45,9.48 -1.73,3.5 -3.08,8.52 -3.73,12.78 -0.59,3.91 -0.67,9.43 -0.16,13.49l0.56 1.95c-0.45,3.55 3.32,11.81 4.83,14.82 1.08,2.15 5.96,9.39 7.53,10.81 0.89,0.81 0.11,0.32 0.8,0.44 0.41,0.94 0.53,1 1.54,1.85l5.36 4.24c15.39,10.21 33.41,12.15 50.31,3.94 3.88,-1.89 12.89,-7.99 14.56,-11.15 0.29,-0.16 0.09,0.02 0.45,-0.34l1.2 -1.4c3.01,-3.38 7.64,-11.38 8.63,-15.59l-20.86 -0.05c-2.41,4.35 -7.41,8.87 -12.03,11.16 -9.24,4.57 -18.87,4.52 -28.25,-0.29l-5.22 -3.52c-0.5,-0.42 -0.98,-1.01 -1.44,-1.45 -3.98,-3.8 -7.7,-9.66 -8.5,-15.1 -1.96,-7.49 -0.28,-16.27 3.84,-22.69l1.44 -2.5z"/>
 </g>
</svg>
